<svg xmlns="http://www.w3.org/2000/svg" xmlns:xlink="http://www.w3.org/1999/xlink" width="130" height="130" viewBox="0 0 130 130" fill="none">
<g mask="url(#mask-bwaiPHh7RlbJoYqmAVg0j)">
<path     fill="url(#linear_fill_18pBIvXKXypuu9JzwKRfe_0)"  d="M47 77.4L47 99.76C47 99.9097 47.0869 100.041 47.22 100.11L64.82 109.19C64.9323 109.248 65.0665 109.245 65.18 109.19L83.78 100.11C83.9174 100.043 84 99.9029 84 99.75L84 77.4C84 77.1791 83.8209 77 83.6 77L47.4 77C47.1791 77 47 77.1791 47 77.4">
</path>
</g>
<g mask="url(#mask-bwaiPHh7RlbJoYqmAVg0j)">
<path    style="mix-blend-mode:screen" fill="url(#linear_fill_NYa019rv3QGG-19R6c2dx_0)"  d="M49 79.4L49 112.6C49 112.821 49.1791 113 49.4 113L53.6 113C53.8209 113 54 112.821 54 112.6L54 79.4C54 79.1791 53.8209 79 53.6 79L49.4 79C49.1791 79 49 79.1791 49 79.4">
</path>
</g>
<g mask="url(#mask-bwaiPHh7RlbJoYqmAVg0j)">
<path     fill="url(#linear_fill_p0vva_Y04ZnNKGQV1oPFU_0)"  d="M38 79.4L38 112.6C38 112.821 38.1791 113 38.4 113L43.6 113C43.8209 113 44 112.821 44 112.6L44 79.4C44 79.1791 43.8209 79 43.6 79L38.4 79C38.1791 79 38 79.1791 38 79.4">
</path>
</g>
<g mask="url(#mask-bwaiPHh7RlbJoYqmAVg0j)">
<path    style="mix-blend-mode:screen" fill="url(#linear_fill_5nNbFfZ7dxXsdWk0sl-JR_0)"  d="M77 79.4L77 112.6C77 112.821 77.1791 113 77.4 113L81.6 113C81.8209 113 82 112.821 82 112.6L82 79.4C82 79.1791 81.8209 79 81.6 79L77.4 79C77.1791 79 77 79.1791 77 79.4">
</path>
</g>
<g mask="url(#mask-bwaiPHh7RlbJoYqmAVg0j)">
<path     fill="url(#linear_fill_5kZ4Ey0SDdxNoQ_c0t2lf_0)"  d="M87 79.4L87 112.6C87 112.821 87.1791 113 87.4 113L92.6 113C92.8209 113 93 112.821 93 112.6L93 79.4C93 79.1791 92.8209 79 92.6 79L87.4 79C87.1791 79 87 79.1791 87 79.4">
</path>
</g>
<path   fill-rule="evenodd"  fill="url(#linear_fill_GTrvogoBxmsJ3lCUxdM91_0)"  d="M64.8301 68.39C64.9378 68.4406 65.0623 68.4406 65.1701 68.39L107.27 48.62C107.389 48.5643 107.468 48.4591 107.49 48.33L109.32 37.55C109.374 37.2316 109.052 36.9927 108.76 37.13L65.1701 57.6C65.0623 57.6506 64.9378 57.6506 64.8301 57.6L21.2501 37.13C20.9577 36.9927 20.6359 37.2315 20.6901 37.55L22.5201 48.33C22.542 48.4591 22.6215 48.5643 22.7401 48.62L64.8301 68.39M104.82 64.01C104.874 63.6916 104.552 63.4527 104.26 63.59L65.1701 81.94C65.0623 81.9906 64.9378 81.9906 64.8301 81.94L25.7501 63.59C25.4577 63.4527 25.1359 63.6916 25.1901 64.01L27.0201 74.79C27.042 74.9191 27.1215 75.0243 27.2401 75.08L64.8301 92.74C64.9378 92.7906 65.0623 92.7906 65.1701 92.74L102.77 75.08C102.889 75.0243 102.968 74.9191 102.99 74.79L104.82 64.01M24.7701 61.56C24.792 61.6891 24.8715 61.7943 24.9901 61.85L64.8301 80.57C64.9378 80.6206 65.0623 80.6206 65.1701 80.57L105.02 61.85C105.139 61.7943 105.218 61.6891 105.24 61.56L107.07 50.78C107.124 50.4616 106.802 50.2227 106.51 50.36L65.1701 69.77C65.0623 69.8206 64.9378 69.8206 64.8301 69.77L23.5001 50.36C23.2077 50.2227 22.8859 50.4715 22.9401 50.79L24.7701 61.56">
</path>
<g mask="url(#mask-KuOs-yIJ22pWI-9ACbrxp)">
<g filter="url(#filter_FkpgfnSEBSSR3lsekoa81)">
<rect x="33" y="43" width="65" height="36"   fill="#E1A466" >
</rect>
</g>
</g>
<g filter="url(#filter_faSORZk4O5Ue8fZuJGhA2)">
<path     fill="url(#linear_fill_faSORZk4O5Ue8fZuJGhA2_0)"  d="M97.909 45.6188L97.909 74.3812C97.909 77.2393 96.3842 79.8803 93.909 81.3094L69 95.6906C66.5248 97.1197 63.4752 97.1197 61 95.6906L36.091 81.3094C33.6158 79.8803 32.091 77.2393 32.091 74.3812L32.091 45.6188C32.091 42.7607 33.6158 40.1197 36.091 38.6906L61 24.3094C63.4752 22.8803 66.5248 22.8803 69 24.3094L93.909 38.6906C96.3842 40.1197 97.909 42.7607 97.909 45.6188Z">
</path>
</g>
<g filter="url(#filter_L3WQaHKiyaDsJuB9Lcxo_)">
<path     fill="url(#linear_fill_L3WQaHKiyaDsJuB9Lcxo__0)"  d="M90.1147 47.8094L90.1147 72.1906C90.1147 73.6197 89.3523 74.9402 88.1147 75.6547L67 87.8453C65.7624 88.5598 64.2376 88.5598 63 87.8453L41.8853 75.6547C40.6477 74.9402 39.8853 73.6197 39.8853 72.1906L39.8853 47.8094C39.8853 46.3803 40.6477 45.0598 41.8853 44.3453L63 32.1547C64.2376 31.4402 65.7624 31.4402 67 32.1547L88.1147 44.3453C89.3523 45.0598 90.1147 46.3803 90.1147 47.8094Z">
</path>
</g>
<path d="M65 42L70.63 52.2528L65 60L59.37 52.2528L65 42Z"   fill="url(#linear_fill_b8Jq_J2FTr8hveVndkaBO)" >
</path>
<path d="M47.8805 54.4388L59.3713 52.2527L64.9995 60.0011L55.8917 62.9616L47.8805 54.4388Z"   fill="url(#linear_fill_F2XwF4opd5S8lLFiwTQ2l)" >
</path>
<path d="M54.4199 74.5612L55.8916 62.9572L65.0001 59.9989L65.0012 69.5757L54.4199 74.5612Z"   fill="url(#linear_fill_cYSvatGoO7YYd43aLTkju)" >
</path>
<path d="M75.5801 74.5611L64.9989 69.5757L65 59.9988L74.1084 62.9572L75.5801 74.5611Z"   fill="url(#linear_fill_M0CsJnm1DriUDoekJfgaU)" >
</path>
<path d="M82.1195 54.4388L74.1083 62.9616L65.0005 60.0012L70.6288 52.2527L82.1195 54.4388Z"   fill="url(#linear_fill_Pn8VAYmH6xkeJRNshrAk1)" >
</path>
<path fill-rule="evenodd" transform="translate(5, 5)" fill="rgba(255, 255, 255, 0.24)"  d="M-5 24L-5 96C-5 112.016 7.98375 125 24 125L96 125C112.016 125 125 112.016 125 96L125 24C125 7.98375 112.016 -5 96 -5L24 -5C7.98375 -5 -5 7.98375 -5 24ZM0 24L0 96C0 109.255 10.7452 120 24 120L96 120C109.255 120 120 109.255 120 96L120 24C120 10.7452 109.255 0 96 0L24 0C10.7452 0 0 10.7452 0 24Z">
</path>
<defs>
<linearGradient id="linear_fill_bwaiPHh7RlbJoYqmAVg0j_0" x1="63.93017578125" y1="86.38050842285156" x2="63.93017578125" y2="115.69461059570312" gradientUnits="userSpaceOnUse">
<stop offset="0" stop-color="#FFF3C2"  />
<stop offset="1" stop-color="#EFA76A"  />
</linearGradient>
<mask id="mask-bwaiPHh7RlbJoYqmAVg0j" style="mask-type:alpha" maskUnits="userSpaceOnUse">
<path     fill="url(#linear_fill_bwaiPHh7RlbJoYqmAVg0j_0)"  d="M38 77.4L38 94.76C38 94.9082 38.079 95.0407 38.21 95.11L64.81 109.18C64.927 109.242 65.073 109.242 65.19 109.18L91.79 95.11C91.921 95.0407 92 94.9082 92 94.76L92 77.4C92 77.1791 91.8209 77 91.6 77L38.4 77C38.1791 77 38 77.1791 38 77.4">
</path>
</mask>
<linearGradient id="linear_fill_18pBIvXKXypuu9JzwKRfe_0" x1="63.93017578125" y1="86.38050842285156" x2="63.93017578125" y2="115.69461059570312" gradientUnits="userSpaceOnUse">
<stop offset="0" stop-color="#FFF3C2"  />
<stop offset="1" stop-color="#EFA76A"  />
</linearGradient>
<linearGradient id="linear_fill_NYa019rv3QGG-19R6c2dx_0" x1="51.5" y1="79" x2="51.5" y2="113" gradientUnits="userSpaceOnUse">
<stop offset="0" stop-color="#FFEFDF"  />
<stop offset="1" stop-color="#FFEFDE" stop-opacity="0.13" />
</linearGradient>
<linearGradient id="linear_fill_p0vva_Y04ZnNKGQV1oPFU_0" x1="40.770263671875" y1="88.88034057617188" x2="40.770263671875" y2="119.75640869140625" gradientUnits="userSpaceOnUse">
<stop offset="0" stop-color="#FFF3C2"  />
<stop offset="1" stop-color="#EFA76A"  />
</linearGradient>
<linearGradient id="linear_fill_5nNbFfZ7dxXsdWk0sl-JR_0" x1="79.5" y1="79" x2="79.5" y2="113" gradientUnits="userSpaceOnUse">
<stop offset="0" stop-color="#FFEFDF"  />
<stop offset="1" stop-color="#FFEFDE" stop-opacity="0.13" />
</linearGradient>
<linearGradient id="linear_fill_5kZ4Ey0SDdxNoQ_c0t2lf_0" x1="89.770263671875" y1="88.88034057617188" x2="89.770263671875" y2="119.75640869140625" gradientUnits="userSpaceOnUse">
<stop offset="0" stop-color="#FFF3C2"  />
<stop offset="1" stop-color="#EFA76A"  />
</linearGradient>
<linearGradient id="linear_fill_GTrvogoBxmsJ3lCUxdM91_0" x1="65.0050048828125" y1="33.00227355957031" x2="65.0050048828125" y2="84.00387573242188" gradientUnits="userSpaceOnUse">
<stop offset="0" stop-color="#FFF3C2"  />
<stop offset="1" stop-color="#EFA76A"  />
</linearGradient>
<linearGradient id="linear_fill_KuOs-yIJ22pWI-9ACbrxp_0" x1="65.0050048828125" y1="33.00227355957031" x2="65.0050048828125" y2="84.00387573242188" gradientUnits="userSpaceOnUse">
<stop offset="0" stop-color="#FFF3C2"  />
<stop offset="1" stop-color="#EFA76A"  />
</linearGradient>
<mask id="mask-KuOs-yIJ22pWI-9ACbrxp" style="mask-type:alpha" maskUnits="userSpaceOnUse">
<path   fill-rule="evenodd"  fill="url(#linear_fill_KuOs-yIJ22pWI-9ACbrxp_0)"  d="M24.7701 61.56C24.792 61.6891 24.8715 61.7943 24.9901 61.85L64.8301 80.57C64.9378 80.6206 65.0623 80.6206 65.1701 80.57L105.02 61.85C105.139 61.7943 105.218 61.6891 105.24 61.56L107.07 50.78C107.124 50.4616 106.802 50.2227 106.51 50.36L65.1701 69.77C65.0623 69.8206 64.9378 69.8206 64.8301 69.77L23.5001 50.36C23.2077 50.2227 22.8859 50.4715 22.9401 50.79L24.7701 61.56M107.27 48.62C107.389 48.5643 107.468 48.4591 107.49 48.33L109.32 37.55C109.374 37.2316 109.052 36.9927 108.76 37.13L65.1701 57.6C65.0623 57.6506 64.9378 57.6506 64.8301 57.6L21.2501 37.13C20.9577 36.9927 20.6359 37.2315 20.6901 37.55L22.5201 48.33C22.542 48.4591 22.6215 48.5643 22.7401 48.62L64.8301 68.39C64.9378 68.4406 65.0623 68.4406 65.1701 68.39L107.27 48.62M104.82 64.01C104.874 63.6916 104.552 63.4527 104.26 63.59L65.1701 81.94C65.0623 81.9906 64.9378 81.9906 64.8301 81.94L25.7501 63.59C25.4577 63.4527 25.1359 63.6916 25.1901 64.01L27.0201 74.79C27.042 74.9191 27.1215 75.0243 27.2401 75.08L64.8301 92.74C64.9378 92.7906 65.0623 92.7906 65.1701 92.74L102.77 75.08C102.889 75.0243 102.968 74.9191 102.99 74.79L104.82 64.01">
</path>
</mask>
<filter id="filter_FkpgfnSEBSSR3lsekoa81" x="25" y="35" width="81" height="52" filterUnits="userSpaceOnUse" color-interpolation-filters="sRGB">
<feFlood flood-opacity="0" result="feFloodId_FkpgfnSEBSSR3lsekoa81"/>
<feBlend mode="normal" in="SourceGraphic" in2="feFloodId_FkpgfnSEBSSR3lsekoa81" result="shape"/>
<feGaussianBlur result="gaussian_blur_FkpgfnSEBSSR3lsekoa81" stdDeviation="4"/>
</filter>
<linearGradient id="linear_fill_faSORZk4O5Ue8fZuJGhA2_0" x1="65" y1="16" x2="65" y2="98" gradientUnits="userSpaceOnUse">
<stop offset="0" stop-color="#FAEDBB"  />
<stop offset="1" stop-color="#EDA161"  />
</linearGradient>
<filter id="filter_faSORZk4O5Ue8fZuJGhA2" x="18.091064453125" y="12.880340576171875" width="93.81787109375" height="102.23931884765625" filterUnits="userSpaceOnUse" color-interpolation-filters="sRGB">
<feFlood flood-opacity="0" result="feFloodId_faSORZk4O5Ue8fZuJGhA2"/>
<feColorMatrix in="SourceAlpha" type="matrix" values="0 0 0 0 0 0 0 0 0 0 0 0 0 0 0 0 0 0 127 0" result="hardAlpha_faSORZk4O5Ue8fZuJGhA2"/>
<feOffset dx="0" dy="4"/>
<feGaussianBlur stdDeviation="7"/>
<feComposite in2="hardAlpha_faSORZk4O5Ue8fZuJGhA2" operator="out"/>
<feColorMatrix type="matrix" values="0 0 0 0 0.9450980392156862 0 0 0 0 0.7019607843137254 0 0 0 0 0.44313725490196076 0 0 0 0.4 0"/>
<feBlend mode="normal" in2="feFloodId_faSORZk4O5Ue8fZuJGhA2" result="dropShadow_1_faSORZk4O5Ue8fZuJGhA2"/>
<feBlend mode="normal" in="SourceGraphic" in2="dropShadow_1_faSORZk4O5Ue8fZuJGhA2" result="shape_faSORZk4O5Ue8fZuJGhA2"/>
</filter>
<linearGradient id="linear_fill_L3WQaHKiyaDsJuB9Lcxo__0" x1="65" y1="31" x2="65" y2="89" gradientUnits="userSpaceOnUse">
<stop offset="0" stop-color="#F2AD69"  />
<stop offset="1" stop-color="#F2AD69"  />
</linearGradient>
<filter id="filter_L3WQaHKiyaDsJuB9Lcxo_" x="34.88525390625" y="27.440170288085938" width="60.2294921875" height="67.11965942382812" filterUnits="userSpaceOnUse" color-interpolation-filters="sRGB">
<feFlood flood-opacity="0" result="feFloodId_L3WQaHKiyaDsJuB9Lcxo_"/>
<feColorMatrix in="SourceAlpha" type="matrix" values="0 0 0 0 0 0 0 0 0 0 0 0 0 0 0 0 0 0 127 0" result="hardAlpha_L3WQaHKiyaDsJuB9Lcxo_"/>
<feOffset dx="0" dy="1"/>
<feGaussianBlur stdDeviation="2.5"/>
<feComposite in2="hardAlpha_L3WQaHKiyaDsJuB9Lcxo_" operator="out"/>
<feColorMatrix type="matrix" values="0 0 0 0 0.9764705882352941 0 0 0 0 0.8862745098039215 0 0 0 0 0.6470588235294118 0 0 0 0.89 0"/>
<feBlend mode="normal" in2="feFloodId_L3WQaHKiyaDsJuB9Lcxo_" result="dropShadow_1_L3WQaHKiyaDsJuB9Lcxo_"/>
<feBlend mode="normal" in="SourceGraphic" in2="dropShadow_1_L3WQaHKiyaDsJuB9Lcxo_" result="shape_L3WQaHKiyaDsJuB9Lcxo_"/>
<feBlend mode="normal" in="SourceGraphic" in2="feFloodId_L3WQaHKiyaDsJuB9Lcxo_" result="shape_L3WQaHKiyaDsJuB9Lcxo_"/>
<feColorMatrix in="SourceAlpha" type="matrix" values="0 0 0 0 0 0 0 0 0 0 0 0 0 0 0 0 0 0 127 0" result="hardAlpha_L3WQaHKiyaDsJuB9Lcxo_"/>
<feOffset dx="0" dy="0"/>
<feGaussianBlur stdDeviation="4.5"/>
<feComposite in2="hardAlpha_L3WQaHKiyaDsJuB9Lcxo_" operator="arithmetic" k2="-1" k3="1"/>
<feColorMatrix type="matrix" values="0 0 0 0 0.9725490196078431 0 0 0 0 0.6196078431372549 0 0 0 0 0.29411764705882354 0 0 0 0.38 0"/>
<feBlend mode="multiply" in2="shape_L3WQaHKiyaDsJuB9Lcxo_" result="innerShadow_0_L3WQaHKiyaDsJuB9Lcxo_" />
</filter>
<radialGradient id="linear_fill_b8Jq_J2FTr8hveVndkaBO" cx="0" cy="0" r="1" gradientTransform="translate(65 42) rotate(-180) scale(18, 18)" gradientUnits="userSpaceOnUse">
<stop offset="0.75" stop-color="#FFEEDF"  />
<stop offset="0.75" stop-color="#F9E1AB"  />
</radialGradient>
<radialGradient id="linear_fill_F2XwF4opd5S8lLFiwTQ2l" cx="0" cy="0" r="1" gradientTransform="translate(47.8804931640625 54.4388427734375) rotate(-252.00001414615838) scale(17.99999988229764, 17.99999988229764)" gradientUnits="userSpaceOnUse">
<stop offset="0.75" stop-color="#FFEEDF"  />
<stop offset="0.75" stop-color="#F9E1AB"  />
</radialGradient>
<radialGradient id="linear_fill_cYSvatGoO7YYd43aLTkju" cx="0" cy="0" r="1" gradientTransform="translate(54.419921875 74.5611572265625) rotate(36.00017704671063) scale(18.00003514172209, 18.00003514172209)" gradientUnits="userSpaceOnUse">
<stop offset="0.25" stop-color="#FFEEDF"  />
<stop offset="0.25" stop-color="#F9E1AB"  />
</radialGradient>
<radialGradient id="linear_fill_M0CsJnm1DriUDoekJfgaU" cx="0" cy="0" r="1" gradientTransform="translate(75.580078125 74.5611572265625) rotate(-35.99983414480694) scale(17.999975735201804, 17.999975735201804)" gradientUnits="userSpaceOnUse">
<stop offset="0.25" stop-color="#FFEEDF"  />
<stop offset="0.25" stop-color="#F9E1AB"  />
</radialGradient>
<radialGradient id="linear_fill_Pn8VAYmH6xkeJRNshrAk1" cx="0" cy="0" r="1" gradientTransform="translate(82.1195068359375 54.4388427734375) rotate(-107.99998585384162) scale(17.99999988229764, 17.99999988229764)" gradientUnits="userSpaceOnUse">
<stop offset="0.75" stop-color="#FFEEDF"  />
<stop offset="0.75" stop-color="#F9E1AB"  />
</radialGradient>
</defs>
</svg>
