<svg xmlns="http://www.w3.org/2000/svg" xmlns:xlink="http://www.w3.org/1999/xlink" width="156" height="114.89447021484375" viewBox="0 0 156 114.89447021484375" fill="none">
<path d="M125.95 33.0087L125.95 33.0087C129.121 34.0305 131.608 36.5119 132.638 39.6801C133.668 42.8483 133.114 46.3181 131.15 49.0087L131.15 49.0087C133.89 50.9335 135.533 54.0618 135.563 57.4102C135.593 60.7585 134.005 63.9155 131.3 65.8887L131.3 65.8887C133.26 68.5806 133.81 72.0486 132.781 75.2151C131.752 78.3817 129.268 80.8633 126.1 81.8887L126.1 81.8887L126.1 81.8887C127.132 85.0561 126.583 88.5265 124.624 91.2206C122.664 93.9146 119.531 95.5056 116.2 95.4987L116.2 95.4987L116.2 95.4987C116.207 98.8301 114.616 101.963 111.922 103.923C109.228 105.882 105.757 106.431 102.59 105.399L102.59 105.399C101.565 108.566 99.083 111.051 95.9165 112.08C92.7499 113.109 89.2819 112.558 86.59 110.599L86.59 110.599C84.6359 113.297 81.5065 114.894 78.175 114.894C74.8435 114.894 71.7141 113.297 69.76 110.599L69.76 110.599C67.0682 112.558 63.6002 113.109 60.4336 112.08C57.267 111.051 54.7855 108.566 53.76 105.399L53.76 105.399C50.589 106.486 47.0881 105.977 44.3585 104.031C41.6289 102.084 40.0059 98.941 40 95.5887L40 95.5887L40 95.5887C36.6526 95.6162 33.4974 94.0277 31.5259 91.3223C29.5543 88.617 29.0086 85.1268 30.06 81.9487L30.06 81.9487L30.06 81.9487C26.8922 80.9233 24.4078 78.4417 23.3787 75.2751C22.3495 72.1086 22.9004 68.6406 24.86 65.9487L24.86 65.9487C22.1658 63.9942 20.5712 60.8672 20.5712 57.5387C20.5712 54.2102 22.1658 51.0832 24.86 49.1287L24.86 49.1287C22.8958 46.4381 22.3423 42.9683 23.372 39.8001C24.4016 36.6319 26.8893 34.1505 30.06 33.1287L30.06 33.1287L30.06 33.1287C28.9731 29.9384 29.5013 26.419 31.4769 23.6882C33.4524 20.9575 36.6298 19.3546 40 19.3887L40 19.3887L40 19.3887C39.9931 16.0573 41.5841 12.9246 44.2782 10.9649C46.9722 9.00524 50.4426 8.45626 53.61 9.48872L53.61 9.48872C54.6392 6.32388 57.1208 3.84269 60.2858 2.81406C63.4508 1.78544 66.9169 2.33361 69.61 4.28872L69.61 4.28872C71.5667 1.59444 74.6952 0 78.025 0C81.3548 0 84.4833 1.59444 86.44 4.28872L86.44 4.28872C89.1331 2.33361 92.5993 1.78544 95.7643 2.81406C98.9293 3.84269 101.411 6.32388 102.44 9.48872L102.44 9.48872C105.608 8.45152 109.081 8.99854 111.776 10.9592C114.471 12.9199 116.061 16.0556 116.05 19.3887L116.05 19.3887L116.05 19.3887C119.382 19.3852 122.514 20.9786 124.474 23.6739C126.433 26.3693 126.982 29.8403 125.95 33.0087L125.95 33.0087Z"   fill="#FFD630" >
</path>
<path d="M139.6 82.3387L139.6 82.3387L148.13 69.1587L83.55 69.1487L8.01 69.1587L16.53 82.3387L8 95.5187L83.55 95.5187L148.13 95.5187L139.6 82.3387Z"   fill="#EB3B5E" >
</path>
<path d="M95.53 22.2087C95.53 22.2087 89.19 21.7187 85.68 25.7087C83.5859 28.241 82.6954 31.5582 83.24 34.7987C86.4852 35.2559 89.7691 34.2817 92.24 32.1287C96.17 28.5287 95.53 22.2087 95.53 22.2087Z"   fill="#729C36" >
</path>
<path d="M90.87 26.4887C91.32 26.0487 91.71 25.7087 91.98 25.4887C92.25 25.2687 92.41 25.1087 92.41 25.1087L92.05 25.5587C91.82 25.8387 91.5 26.2587 91.05 26.7287C90.6 27.1987 90.17 27.7287 89.65 28.3387C89.13 28.9487 88.56 29.5387 88 30.1487C87.44 30.7587 86.85 31.3587 86.3 31.9087C85.75 32.4587 85.22 32.9687 84.77 33.4087C84.32 33.8487 83.93 34.1987 83.67 34.4087C83.41 34.6187 83.24 34.7987 83.24 34.7987C83.24 34.7987 83.36 34.6287 83.59 34.3487C83.82 34.0687 84.14 33.6487 84.59 33.1787C85.04 32.7087 85.47 32.1787 85.99 31.5587C86.51 30.9387 87.08 30.3687 87.65 29.7587C88.22 29.1487 88.8 28.5487 89.35 27.9887L90.87 26.4887Z"   fill="#FFFFFF" >
</path>
<path d="M58 21.8587C57.7098 22.2223 57.5511 22.6735 57.55 23.1387C57.55 27.6887 66.71 27.9387 71.1 27.1387C68.18 23.8487 60.85 18.2887 58 21.8587Z"   fill="#DE3355" >
</path>
<path d="M58.07 28.5287C57.9919 28.9517 58.0589 29.3886 58.26 29.7687C60.26 33.5187 67.86 29.7087 71.13 27.1887C67.26 25.7387 58.82 24.3687 58.07 28.5287Z"   fill="#EB3B5E" >
</path>
<path d="M61.78 17.9487C61.983 17.5669 62.3115 17.2666 62.71 17.0987C66.58 15.3887 70.16 23.1487 71.14 27.1687C67.21 25.8787 59.77 21.6787 61.78 17.9487Z"   fill="#EB3B5E" >
</path>
<path d="M67.76 27.1187C68.0983 27.5142 68.5732 27.7677 69.09 27.8287C68.38 28.3387 68.71 29.6387 68.71 29.6387L71 27.3287C75.6745 28.711 79.9163 31.2692 83.32 34.7587C83.4192 34.849 83.5708 34.849 83.67 34.7587C83.7691 34.6514 83.7691 34.486 83.67 34.3787C80.1926 30.8216 75.8614 28.2153 71.09 26.8087L70.76 23.8087C70.76 23.8087 69.68 24.6187 69.92 25.4687C69.4792 25.193 68.9522 25.0898 68.44 25.1787C68.44 25.1787 68.5 26.2987 69.32 26.5787C68.741 26.4691 68.1473 26.6746 67.76 27.1187Z"   fill="#729C36" >
</path>
<path d="M76.12 11.9487C75.6542 11.9786 75.2113 12.1614 74.86 12.4687C71.46 15.4687 77.43 22.4687 80.93 25.2487C81.43 20.7787 80.66 11.6087 76.12 11.9487Z"   fill="#DE3355" >
</path>
<path d="M71.19 16.3887C70.8209 16.6254 70.5398 16.9767 70.39 17.3887C68.91 21.3887 76.86 24.4887 80.93 25.2287C79.41 21.3587 74.79 14.1687 71.19 16.3887Z"   fill="#EB3B5E" >
</path>
<path d="M81.53 12.0887C81.9477 11.9903 82.3859 12.0289 82.78 12.1987C86.64 13.9387 83.27 21.7987 80.93 25.1987C79.27 21.4187 77.42 13.0787 81.53 12.0887Z"   fill="#EB3B5E" >
</path>
<path d="M80.6 21.8587C80.1781 22.2711 80.0068 22.8764 80.15 23.4487C79.82 22.6487 78.71 22.6487 78.71 22.6487C78.6431 23.1664 78.7714 23.6905 79.07 24.1187C78.22 23.9187 77.47 25.0487 77.47 25.0487L80.68 25.2187C82.1632 28.2298 83.0656 31.4934 83.34 34.8387C83.5194 34.8188 83.7005 34.8188 83.88 34.8387C83.6107 31.4015 82.6946 28.046 81.18 24.9487L83.18 22.6687C83.18 22.6687 81.85 22.4087 81.39 23.1487C81.2925 22.6369 81.0116 22.1782 80.6 21.8587Z"   fill="#729C36" >
</path>
<g >
<path     fill="#000000"  d="M35.8287 66.0867L38.4838 66.0867L40.5109 59.6915L48.1623 59.6915L50.1608 66.0867L52.9587 66.0867L45.8498 45.1596L42.9091 45.1596L35.8287 66.0867ZM41.1675 57.6074L42.1954 54.3812C42.9376 52.0116 43.6228 49.7561 44.2795 47.3008L44.3937 47.3008C45.0789 49.7276 45.7355 52.0116 46.5064 54.3812L47.5056 57.6074L41.1675 57.6074ZM60.4102 66.4579C62.266 66.4579 63.9219 65.4586 65.121 64.2595L65.2066 64.2595L65.4351 66.0867L67.5763 66.0867L67.5763 43.3609L64.9497 43.3609L64.9497 49.3279L65.0925 51.983C63.722 50.8696 62.5515 50.1844 60.7243 50.1844C57.1841 50.1844 54.015 53.3249 54.015 58.3497C54.015 63.5172 56.5275 66.4579 60.4102 66.4579ZM60.9812 64.2595C58.269 64.2595 56.6987 62.0612 56.6987 58.3211C56.6987 54.7809 58.6973 52.3827 61.1811 52.3827C62.4659 52.3827 63.6649 52.8395 64.9497 54.0101L64.9497 62.1468C63.6649 63.5743 62.4087 64.2595 60.9812 64.2595ZM72.2585 66.0867L74.8851 66.0867L74.8851 54.838C76.284 53.2392 77.5974 52.4684 78.7679 52.4684C80.7379 52.4684 81.6515 53.696 81.6515 56.6081L81.6515 66.0867L84.2495 66.0867L84.2495 54.838C85.7056 53.2392 86.9617 52.4684 88.1609 52.4684C90.1308 52.4684 91.0444 53.696 91.0444 56.6081L91.0444 66.0867L93.6424 66.0867L93.6424 56.2655C93.6424 52.3256 92.1293 50.1844 88.9603 50.1844C87.0474 50.1844 85.4486 51.412 83.8213 53.1536C83.1931 51.3264 81.937 50.1844 79.5387 50.1844C77.683 50.1844 76.0842 51.3549 74.7138 52.8395L74.6567 52.8395L74.3997 50.5841L72.2585 50.5841L72.2585 66.0867ZM98.1248 66.0867L100.751 66.0867L100.751 50.5841L98.1248 50.5841L98.1248 66.0867ZM99.4381 47.3865C100.466 47.3865 101.18 46.7013 101.18 45.6449C101.18 44.6457 100.466 43.9605 99.4381 43.9605C98.4103 43.9605 97.7251 44.6457 97.7251 45.6449C97.7251 46.7013 98.4103 47.3865 99.4381 47.3865ZM105.405 66.0867L108.032 66.0867L108.032 54.838C109.573 53.2678 110.658 52.4684 112.257 52.4684C114.313 52.4684 115.198 53.696 115.198 56.6081L115.198 66.0867L117.796 66.0867L117.796 56.2655C117.796 52.3256 116.311 50.1844 113.056 50.1844C110.944 50.1844 109.316 51.3549 107.86 52.8395L107.803 52.8395L107.546 50.5841L105.405 50.5841L105.405 66.0867Z">
</path>
</g>
<g >
<path     fill="#FFFFFF"  d="M56.638 85.8517C57.683 85.8517 58.475 85.4337 59.113 84.6967L58.552 84.0477C58.035 84.6197 57.452 84.9607 56.682 84.9607C55.142 84.9607 54.174 83.6847 54.174 81.6497C54.174 79.6367 55.197 78.3937 56.715 78.3937C57.408 78.3937 57.936 78.7017 58.365 79.1527L58.915 78.4927C58.453 77.9757 57.683 77.5027 56.704 77.5027C54.658 77.5027 53.129 79.0757 53.129 81.6827C53.129 84.3007 54.625 85.8517 56.638 85.8517ZM62.842 85.8517C64.305 85.8517 65.603 84.7077 65.603 82.7277C65.603 80.7367 64.305 79.5817 62.842 79.5817C61.379 79.5817 60.081 80.7367 60.081 82.7277C60.081 84.7077 61.379 85.8517 62.842 85.8517ZM62.842 85.0157C61.808 85.0157 61.115 84.1027 61.115 82.7277C61.115 81.3527 61.808 80.4287 62.842 80.4287C63.876 80.4287 64.58 81.3527 64.58 82.7277C64.58 84.1027 63.876 85.0157 62.842 85.0157ZM69.222 85.8517C69.937 85.8517 70.575 85.4667 71.037 85.0047L71.07 85.0047L71.158 85.7087L71.983 85.7087L71.983 76.9527L70.971 76.9527L70.971 79.2517L71.026 80.2747C70.498 79.8457 70.047 79.5817 69.343 79.5817C67.979 79.5817 66.758 80.7917 66.758 82.7277C66.758 84.7187 67.726 85.8517 69.222 85.8517ZM69.442 85.0047C68.397 85.0047 67.792 84.1577 67.792 82.7167C67.792 81.3527 68.562 80.4287 69.519 80.4287C70.014 80.4287 70.476 80.6047 70.971 81.0557L70.971 84.1907C70.476 84.7407 69.992 85.0047 69.442 85.0047ZM76.427 85.8517C77.23 85.8517 77.868 85.5877 78.385 85.2467L78.033 84.5757C77.582 84.8727 77.12 85.0487 76.537 85.0487C75.404 85.0487 74.623 84.2347 74.557 82.9587L78.583 82.9587C78.605 82.8047 78.627 82.6067 78.627 82.3867C78.627 80.6817 77.769 79.5817 76.24 79.5817C74.876 79.5817 73.567 80.7807 73.567 82.7277C73.567 84.6967 74.832 85.8517 76.427 85.8517ZM74.546 82.2437C74.667 81.0557 75.415 80.3847 76.262 80.3847C77.197 80.3847 77.747 81.0337 77.747 82.2437L74.546 82.2437ZM80.101 85.7087L81.113 85.7087L81.113 81.8697C81.509 80.8577 82.114 80.4837 82.609 80.4837C82.862 80.4837 82.994 80.5167 83.192 80.5827L83.379 79.7137C83.192 79.6147 83.005 79.5817 82.741 79.5817C82.081 79.5817 81.465 80.0657 81.047 80.8247L81.025 80.8247L80.926 79.7357L80.101 79.7357L80.101 85.7087ZM84.369 85.7087L85.381 85.7087L85.381 81.3747C85.975 80.7697 86.393 80.4617 87.009 80.4617C87.801 80.4617 88.142 80.9347 88.142 82.0567L88.142 85.7087L89.143 85.7087L89.143 81.9247C89.143 80.4067 88.571 79.5817 87.317 79.5817C86.503 79.5817 85.887 80.0327 85.337 80.5827L85.381 79.3507L85.381 76.9527L84.369 76.9527L84.369 85.7087ZM92.795 85.8517C93.609 85.8517 94.203 85.4227 94.764 84.7737L94.797 84.7737L94.874 85.7087L95.71 85.7087L95.71 79.7357L94.709 79.7357L94.709 83.9707C94.137 84.6747 93.708 84.9827 93.092 84.9827C92.3 84.9827 91.97 84.5097 91.97 83.3987L91.97 79.7357L90.958 79.7357L90.958 83.5197C90.958 85.0487 91.53 85.8517 92.795 85.8517ZM100.352 85.8517C101.716 85.8517 102.948 84.6747 102.948 82.6287C102.948 80.7807 102.112 79.5817 100.572 79.5817C99.901 79.5817 99.241 79.9557 98.691 80.4177L98.735 79.3507L98.735 76.9527L97.723 76.9527L97.723 85.7087L98.526 85.7087L98.614 85.0927L98.658 85.0927C99.175 85.5657 99.802 85.8517 100.352 85.8517ZM100.187 85.0047C99.791 85.0047 99.252 84.8507 98.735 84.3887L98.735 81.2427C99.296 80.7147 99.824 80.4287 100.319 80.4287C101.463 80.4287 101.903 81.3087 101.903 82.6397C101.903 84.1137 101.177 85.0047 100.187 85.0047Z">
</path>
</g>
<path d="M27.07 82.3387C27.07 82.6623 26.8751 82.954 26.5761 83.0778C26.2772 83.2016 25.9331 83.1332 25.7043 82.9044C25.4755 82.6756 25.4071 82.3315 25.5309 82.0326C25.6547 81.7336 25.9464 81.5387 26.27 81.5387C26.483 81.536 26.6881 81.6194 26.8387 81.77C26.9893 81.9207 27.0727 82.1257 27.07 82.3387Z"   fill="#FFFFFF" >
</path>
<path d="M30.27 82.3387C30.27 82.6623 30.0751 82.954 29.7762 83.0778C29.4772 83.2016 29.1331 83.1332 28.9043 82.9044C28.6755 82.6756 28.6071 82.3315 28.7309 82.0326C28.8547 81.7336 29.1464 81.5387 29.47 81.5387C29.683 81.536 29.8881 81.6194 30.0387 81.77C30.1893 81.9207 30.2727 82.1257 30.27 82.3387Z"   fill="#FFFFFF" >
</path>
<path d="M33.47 82.3387C33.47 82.6623 33.2751 82.954 32.9762 83.0778C32.6772 83.2016 32.3331 83.1332 32.1043 82.9044C31.8755 82.6756 31.8071 82.3315 31.9309 82.0326C32.0547 81.7336 32.3464 81.5387 32.67 81.5387C32.883 81.536 33.0881 81.6194 33.2387 81.77C33.3893 81.9207 33.4727 82.1257 33.47 82.3387Z"   fill="#FFFFFF" >
</path>
<path d="M36.67 82.3387C36.67 82.6623 36.4751 82.954 36.1761 83.0778C35.8772 83.2016 35.5331 83.1332 35.3043 82.9044C35.0755 82.6756 35.007 82.3315 35.1309 82.0326C35.2547 81.7336 35.5464 81.5387 35.87 81.5387C36.083 81.536 36.288 81.6194 36.4386 81.77C36.5893 81.9207 36.6727 82.1257 36.67 82.3387Z"   fill="#FFFFFF" >
</path>
<path d="M39.86 82.3387C39.86 82.7802 39.5015 83.1387 39.06 83.1387C38.6185 83.1387 38.26 82.7802 38.26 82.3387C38.26 81.8972 38.6185 81.5387 39.06 81.5387C39.5015 81.5387 39.86 81.8972 39.86 82.3387Z"   fill="#FFFFFF" >
</path>
<path d="M43.06 82.3387C43.06 82.6623 42.8651 82.954 42.5661 83.0778C42.2672 83.2016 41.9231 83.1332 41.6943 82.9044C41.4655 82.6756 41.3971 82.3315 41.5209 82.0326C41.6447 81.7336 41.9364 81.5387 42.26 81.5387C42.473 81.536 42.678 81.6194 42.8287 81.77C42.9793 81.9207 43.0627 82.1257 43.06 82.3387Z"   fill="#FFFFFF" >
</path>
<path d="M46.26 82.3387C46.26 82.6623 46.0651 82.954 45.7661 83.0778C45.4672 83.2016 45.1231 83.1332 44.8943 82.9044C44.6655 82.6756 44.5971 82.3315 44.7209 82.0326C44.8447 81.7336 45.1364 81.5387 45.46 81.5387C45.673 81.536 45.8781 81.6194 46.0287 81.77C46.1793 81.9207 46.2627 82.1257 46.26 82.3387Z"   fill="#FFFFFF" >
</path>
<path d="M49.46 82.3387C49.46 82.6623 49.2651 82.954 48.9662 83.0778C48.6672 83.2016 48.3231 83.1332 48.0943 82.9044C47.8655 82.6756 47.7971 82.3315 47.9209 82.0326C48.0447 81.7336 48.3364 81.5387 48.66 81.5387C48.873 81.536 49.0781 81.6194 49.2287 81.77C49.3793 81.9207 49.4627 82.1257 49.46 82.3387Z"   fill="#FFFFFF" >
</path>
<path d="M108.27 82.3387C108.27 82.6632 108.074 82.9555 107.774 83.0787C107.474 83.2019 107.129 83.1316 106.901 82.9008C106.673 82.6699 106.607 82.3242 106.734 82.0256C106.861 81.727 107.156 81.5347 107.48 81.5387C107.691 81.5387 107.894 81.6233 108.042 81.7736C108.191 81.924 108.273 82.1275 108.27 82.3387Z"   fill="#FFFFFF" >
</path>
<path d="M111.47 82.3387C111.47 82.7805 111.112 83.1387 110.67 83.1387C110.228 83.1387 109.87 82.7805 109.87 82.3387C109.87 81.8969 110.228 81.5387 110.67 81.5387C111.112 81.5387 111.47 81.8969 111.47 82.3387Z"   fill="#FFFFFF" >
</path>
<path d="M114.67 82.3387C114.67 82.6623 114.475 82.954 114.176 83.0778C113.877 83.2016 113.533 83.1332 113.304 82.9044C113.075 82.6756 113.007 82.3315 113.131 82.0326C113.255 81.7336 113.546 81.5387 113.87 81.5387C114.083 81.536 114.288 81.6194 114.439 81.77C114.589 81.9207 114.673 82.1257 114.67 82.3387Z"   fill="#FFFFFF" >
</path>
<path d="M117.87 82.3387C117.87 82.6623 117.675 82.954 117.376 83.0778C117.077 83.2016 116.733 83.1332 116.504 82.9044C116.275 82.6756 116.207 82.3315 116.331 82.0326C116.455 81.7336 116.746 81.5387 117.07 81.5387C117.283 81.536 117.488 81.6194 117.639 81.77C117.789 81.9207 117.873 82.1257 117.87 82.3387Z"   fill="#FFFFFF" >
</path>
<path d="M121.07 82.3387C121.07 82.6623 120.875 82.954 120.576 83.0778C120.277 83.2016 119.933 83.1332 119.704 82.9044C119.476 82.6756 119.407 82.3315 119.531 82.0326C119.655 81.7336 119.946 81.5387 120.27 81.5387C120.483 81.536 120.688 81.6194 120.839 81.77C120.989 81.9207 121.073 82.1257 121.07 82.3387Z"   fill="#FFFFFF" >
</path>
<path d="M124.27 82.3387C124.27 82.6623 124.075 82.954 123.776 83.0778C123.477 83.2016 123.133 83.1332 122.904 82.9044C122.676 82.6756 122.607 82.3315 122.731 82.0326C122.855 81.7336 123.146 81.5387 123.47 81.5387C123.683 81.536 123.888 81.6194 124.039 81.77C124.189 81.9207 124.273 82.1257 124.27 82.3387Z"   fill="#FFFFFF" >
</path>
<path d="M127.47 82.3387C127.47 82.6623 127.275 82.954 126.976 83.0778C126.677 83.2016 126.333 83.1332 126.104 82.9044C125.876 82.6756 125.807 82.3315 125.931 82.0326C126.055 81.7336 126.346 81.5387 126.67 81.5387C126.883 81.536 127.088 81.6194 127.239 81.77C127.389 81.9207 127.473 82.1257 127.47 82.3387Z"   fill="#FFFFFF" >
</path>
<path d="M130.66 82.3387C130.66 82.7805 130.302 83.1387 129.86 83.1387C129.418 83.1387 129.06 82.7805 129.06 82.3387C129.06 81.8969 129.418 81.5387 129.86 81.5387C130.302 81.5387 130.66 81.8969 130.66 82.3387Z"   fill="#FFFFFF" >
</path>
</svg>
