<svg xmlns="http://www.w3.org/2000/svg" version="1.1" viewBox="0.00 0.00 204.00 219.00" width="204.00" height="219.00">
<g stroke-width="2.00" fill="none" stroke-linecap="butt">
<path stroke="#808080" d="&#10;  M 32.62 38.04&#10;  Q 33.08 37.32 33.76 36.76&#10;  Q 42.53 29.43 51.63 24.14&#10;  A 0.70 0.70 0.0 0 0 51.66 22.95&#10;  Q 48.34 20.73 43.52 17.24&#10;  C 39.75 14.51 33.43 12.49 32.74 19.13&#10;  Q 32.01 26.14 31.57 37.71&#10;  A 0.57 0.57 0.0 0 0 32.62 38.04"/>
<path stroke="#808080" d="&#10;  M 127.44 21.06&#10;  Q 121.08 18.75 113.37 17.42&#10;  Q 105.09 15.99 96.40 15.93&#10;  C 65.22 15.74 38.79 28.13 21.67 53.98&#10;  C 13.26 66.67 8.19 81.84 5.55 97.55&#10;  C 3.54 109.46 2.91 121.04 4.72 133.09&#10;  Q 6.00 141.63 8.60 148.73&#10;  Q 22.50 186.75 62.29 199.72&#10;  Q 69.37 202.02 75.52 202.86&#10;  Q 78.39 203.26 80.29 203.65&#10;  Q 83.47 204.31 99.51 204.44&#10;  C 101.72 204.45 104.08 203.82 106.23 204.03&#10;  Q 108.04 204.21 111.24 203.54&#10;  Q 112.30 203.31 117.12 202.54&#10;  Q 131.40 200.25 147.13 191.54&#10;  A 0.90 0.88 48.4 0 1 148.10 191.61&#10;  Q 149.38 192.59 154.37 195.47&#10;  C 156.81 196.88 162.12 198.80 166.11 199.07&#10;  Q 166.71 199.11 170.15 199.95&#10;  A 1.43 1.26 -34.5 0 0 170.48 199.99&#10;  L 182.60 200.02&#10;  A 7.73 7.40 37.3 0 0 184.29 199.83&#10;  Q 187.58 199.05 189.34 198.57&#10;  C 196.89 196.51 203.14 188.96 200.35 180.81&#10;  Q 198.38 175.04 192.66 172.48&#10;  A 4.69 4.53 60.1 0 0 191.48 172.14&#10;  Q 184.97 171.23 180.29 174.36&#10;  Q 171.56 180.21 164.53 180.66&#10;  Q 163.73 180.71 163.48 180.62&#10;  A 0.81 0.81 0.0 0 1 163.18 179.30&#10;  Q 186.26 155.35 187.25 121.24&#10;  Q 187.62 108.40 184.52 93.00&#10;  Q 179.85 69.84 168.85 53.41&#10;  Q 164.29 46.59 157.24 39.19&#10;  A 0.47 0.47 0.0 0 0 156.47 39.68&#10;  L 159.05 46.23&#10;  A 0.45 0.44 -21.2 0 1 158.79 46.81&#10;  L 158.40 46.97&#10;  A 0.53 0.52 -21.4 0 1 157.72 46.68&#10;  Q 152.75 34.43 147.89 21.86&#10;  C 146.08 17.17 142.96 13.00 137.84 15.18&#10;  A 4.08 4.05 -77.2 0 0 136.80 15.84&#10;  L 126.45 25.00&#10;  A 0.57 0.57 0.0 0 1 125.55 24.35&#10;  Q 125.95 23.43 127.61 21.91&#10;  A 0.51 0.51 0.0 0 0 127.44 21.06"/>
<path stroke="#808080" d="&#10;  M 49.0625 77.2199&#10;  A 7.17 6.13 90.3 0 0 55.2299 70.0821&#10;  A 7.17 6.13 90.3 0 0 49.1375 62.8801&#10;  A 7.17 6.13 90.3 0 0 42.9701 70.0179&#10;  A 7.17 6.13 90.3 0 0 49.0625 77.2199"/>
<path stroke="#808080" d="&#10;  M 105.0727 77.1968&#10;  A 7.17 6.13 88.3 0 0 110.9873 69.8481&#10;  A 7.17 6.13 88.3 0 0 104.6473 62.8632&#10;  A 7.17 6.13 88.3 0 0 98.7327 70.2119&#10;  A 7.17 6.13 88.3 0 0 105.0727 77.1968"/>
<path stroke="#808080" d="&#10;  M 69.4490 86.7094&#10;  A 0.74 0.43 92.4 0 0 69.9096 85.9880&#10;  A 0.74 0.43 92.4 0 0 69.5110 85.2306&#10;  A 0.74 0.43 92.4 0 0 69.0504 85.9520&#10;  A 0.74 0.43 92.4 0 0 69.4490 86.7094"/>
<path stroke="#808080" d="&#10;  M 75.4716 86.6094&#10;  A 0.65 0.38 92.5 0 0 75.8796 85.9766&#10;  A 0.65 0.38 92.5 0 0 75.5284 85.3106&#10;  A 0.65 0.38 92.5 0 0 75.1204 85.9434&#10;  A 0.65 0.38 92.5 0 0 75.4716 86.6094"/>
<path stroke="#808080" d="&#10;  M 19.09 89.17&#10;  L 34.51 88.07&#10;  A 0.10 0.10 0.0 0 0 34.60 87.96&#10;  L 34.60 87.88&#10;  A 7.66 1.48 -4.1 0 0 26.85 86.95&#10;  L 26.51 86.97&#10;  A 7.66 1.48 -4.1 0 0 18.98 89.00&#10;  L 18.98 89.08&#10;  A 0.10 0.10 0.0 0 0 19.09 89.17"/>
<path stroke="#808080" d="&#10;  M 127.04 87.69&#10;  A 0.33 0.33 0.0 0 0 127.35 88.04&#10;  L 141.97 89.28&#10;  A 0.28 0.27 -16.3 0 0 142.21 88.84&#10;  L 141.77 88.24&#10;  A 1.60 1.58 -13.2 0 0 140.76 87.62&#10;  Q 133.61 86.47 127.27 87.17&#10;  A 0.24 0.22 -89.7 0 0 127.07 87.38&#10;  L 127.04 87.69"/>
<path stroke="#808080" d="&#10;  M 34.56 93.31&#10;  L 34.49 93.01&#10;  A 0.24 0.23 82.0 0 0 34.26 92.82&#10;  Q 27.77 92.98 20.72 95.11&#10;  A 1.63 1.61 5.6 0 0 19.79 95.86&#10;  L 19.42 96.54&#10;  A 0.28 0.28 0.0 0 0 19.72 96.95&#10;  L 34.30 93.71&#10;  A 0.34 0.34 0.0 0 0 34.56 93.31"/>
<path stroke="#808080" d="&#10;  M 93.92 94.08&#10;  C 87.44 97.53 83.63 98.04 76.53 98.09&#10;  C 69.08 98.14 63.67 97.73 58.31 93.17&#10;  A 0.31 0.31 0.0 0 0 57.81 93.51&#10;  C 59.00 97.13 64.00 98.35 67.58 99.01&#10;  Q 79.07 101.16 90.21 97.65&#10;  C 91.46 97.25 94.08 95.66 94.34 94.39&#10;  A 0.29 0.29 0.0 0 0 93.92 94.08"/>
<path stroke="#808080" d="&#10;  M 126.95 93.80&#10;  L 142.14 96.84&#10;  A 0.05 0.05 0.0 0 0 142.21 96.80&#10;  L 142.21 96.80&#10;  A 5.01 1.71 11.3 0 0 137.63 94.14&#10;  L 132.16 93.05&#10;  A 5.01 1.71 11.3 0 0 126.91 93.74&#10;  L 126.91 93.74&#10;  A 0.05 0.05 0.0 0 0 126.95 93.80"/>
<path stroke="#808080" d="&#10;  M 35.00 99.19&#10;  L 34.64 98.16&#10;  A 0.27 0.27 0.0 0 0 34.29 97.99&#10;  L 24.27 101.50&#10;  A 4.39 0.55 -19.3 0 0 20.31 103.47&#10;  L 20.49 103.98&#10;  A 4.39 0.55 -19.3 0 0 24.81 103.05&#10;  L 34.84 99.54&#10;  A 0.27 0.27 0.0 0 0 35.00 99.19"/>
<path stroke="#808080" d="&#10;  M 126.79 98.95&#10;  A 0.33 0.33 0.0 0 0 126.99 99.37&#10;  L 140.73 104.43&#10;  A 0.28 0.27 -0.9 0 0 141.08 104.07&#10;  L 140.81 103.37&#10;  A 1.60 1.57 2.1 0 0 140.00 102.51&#10;  Q 133.43 99.52 127.15 98.51&#10;  A 0.24 0.22 -74.3 0 0 126.90 98.66&#10;  L 126.79 98.95"/>
</g>
<path fill="#ffffff" d="&#10;  M 166.84 178.55&#10;  Q 172.17 177.26 176.61 174.41&#10;  C 182.54 170.59 188.20 168.33 194.61 171.33&#10;  C 202.21 174.90 204.98 185.12 200.82 192.20&#10;  C 194.49 202.96 179.89 202.38 169.25 201.49&#10;  Q 157.50 200.51 147.94 193.78&#10;  A 0.73 0.73 0.0 0 0 147.15 193.73&#10;  C 129.45 203.58 110.73 206.80 90.49 206.24&#10;  C 52.85 205.19 20.16 185.77 7.06 149.85&#10;  C -0.66 128.70 0.96 105.87 6.44 84.46&#10;  Q 12.74 59.81 29.24 41.07&#10;  A 2.28 2.23 67.2 0 0 29.80 39.66&#10;  Q 30.18 29.58 31.06 18.95&#10;  C 31.71 11.14 38.91 11.81 43.82 15.19&#10;  Q 48.83 18.62 53.57 22.02&#10;  A 1.90 1.90 0.0 0 0 55.46 22.21&#10;  Q 69.71 15.74 85.76 14.55&#10;  C 100.36 13.46 115.21 14.63 129.03 19.61&#10;  A 1.05 1.04 -59.6 0 0 130.17 19.31&#10;  Q 132.08 17.12 135.29 14.64&#10;  C 141.12 10.13 146.45 13.82 148.79 19.74&#10;  Q 152.18 28.29 154.23 33.49&#10;  A 3.87 3.85 -79.8 0 0 155.22 34.92&#10;  Q 176.00 54.09 183.65 81.85&#10;  C 187.44 95.60 189.81 110.65 188.86 125.00&#10;  Q 186.84 155.71 166.69 178.31&#10;  A 0.15 0.15 0.0 0 0 166.84 178.55&#10;  Z&#10;  M 32.62 38.04&#10;  Q 33.08 37.32 33.76 36.76&#10;  Q 42.53 29.43 51.63 24.14&#10;  A 0.70 0.70 0.0 0 0 51.66 22.95&#10;  Q 48.34 20.73 43.52 17.24&#10;  C 39.75 14.51 33.43 12.49 32.74 19.13&#10;  Q 32.01 26.14 31.57 37.71&#10;  A 0.57 0.57 0.0 0 0 32.62 38.04&#10;  Z&#10;  M 127.44 21.06&#10;  Q 121.08 18.75 113.37 17.42&#10;  Q 105.09 15.99 96.40 15.93&#10;  C 65.22 15.74 38.79 28.13 21.67 53.98&#10;  C 13.26 66.67 8.19 81.84 5.55 97.55&#10;  C 3.54 109.46 2.91 121.04 4.72 133.09&#10;  Q 6.00 141.63 8.60 148.73&#10;  Q 22.50 186.75 62.29 199.72&#10;  Q 69.37 202.02 75.52 202.86&#10;  Q 78.39 203.26 80.29 203.65&#10;  Q 83.47 204.31 99.51 204.44&#10;  C 101.72 204.45 104.08 203.82 106.23 204.03&#10;  Q 108.04 204.21 111.24 203.54&#10;  Q 112.30 203.31 117.12 202.54&#10;  Q 131.40 200.25 147.13 191.54&#10;  A 0.90 0.88 48.4 0 1 148.10 191.61&#10;  Q 149.38 192.59 154.37 195.47&#10;  C 156.81 196.88 162.12 198.80 166.11 199.07&#10;  Q 166.71 199.11 170.15 199.95&#10;  A 1.43 1.26 -34.5 0 0 170.48 199.99&#10;  L 182.60 200.02&#10;  A 7.73 7.40 37.3 0 0 184.29 199.83&#10;  Q 187.58 199.05 189.34 198.57&#10;  C 196.89 196.51 203.14 188.96 200.35 180.81&#10;  Q 198.38 175.04 192.66 172.48&#10;  A 4.69 4.53 60.1 0 0 191.48 172.14&#10;  Q 184.97 171.23 180.29 174.36&#10;  Q 171.56 180.21 164.53 180.66&#10;  Q 163.73 180.71 163.48 180.62&#10;  A 0.81 0.81 0.0 0 1 163.18 179.30&#10;  Q 186.26 155.35 187.25 121.24&#10;  Q 187.62 108.40 184.52 93.00&#10;  Q 179.85 69.84 168.85 53.41&#10;  Q 164.29 46.59 157.24 39.19&#10;  A 0.47 0.47 0.0 0 0 156.47 39.68&#10;  L 159.05 46.23&#10;  A 0.45 0.44 -21.2 0 1 158.79 46.81&#10;  L 158.40 46.97&#10;  A 0.53 0.52 -21.4 0 1 157.72 46.68&#10;  Q 152.75 34.43 147.89 21.86&#10;  C 146.08 17.17 142.96 13.00 137.84 15.18&#10;  A 4.08 4.05 -77.2 0 0 136.80 15.84&#10;  L 126.45 25.00&#10;  A 0.57 0.57 0.0 0 1 125.55 24.35&#10;  Q 125.95 23.43 127.61 21.91&#10;  A 0.51 0.51 0.0 0 0 127.44 21.06&#10;  Z"/>
<path fill="#000000" d="&#10;  M 32.62 38.04&#10;  A 0.57 0.57 0.0 0 1 31.57 37.71&#10;  Q 32.01 26.14 32.74 19.13&#10;  C 33.43 12.49 39.75 14.51 43.52 17.24&#10;  Q 48.34 20.73 51.66 22.95&#10;  A 0.70 0.70 0.0 0 1 51.63 24.14&#10;  Q 42.53 29.43 33.76 36.76&#10;  Q 33.08 37.32 32.62 38.04&#10;  Z"/>
<path fill="#000000" d="&#10;  M 127.61 21.91&#10;  Q 125.95 23.43 125.55 24.35&#10;  A 0.57 0.57 0.0 0 0 126.45 25.00&#10;  L 136.80 15.84&#10;  A 4.08 4.05 -77.2 0 1 137.84 15.18&#10;  C 142.96 13.00 146.08 17.17 147.89 21.86&#10;  Q 152.75 34.43 157.72 46.68&#10;  A 0.53 0.52 -21.4 0 0 158.40 46.97&#10;  L 158.79 46.81&#10;  A 0.45 0.44 -21.2 0 0 159.05 46.23&#10;  L 156.47 39.68&#10;  A 0.47 0.47 0.0 0 1 157.24 39.19&#10;  Q 164.29 46.59 168.85 53.41&#10;  Q 179.85 69.84 184.52 93.00&#10;  Q 187.62 108.40 187.25 121.24&#10;  Q 186.26 155.35 163.18 179.30&#10;  A 0.81 0.81 0.0 0 0 163.48 180.62&#10;  Q 163.73 180.71 164.53 180.66&#10;  Q 171.56 180.21 180.29 174.36&#10;  Q 184.97 171.23 191.48 172.14&#10;  A 4.69 4.53 60.1 0 1 192.66 172.48&#10;  Q 198.38 175.04 200.35 180.81&#10;  C 203.14 188.96 196.89 196.51 189.34 198.57&#10;  Q 187.58 199.05 184.29 199.83&#10;  A 7.73 7.40 37.3 0 1 182.60 200.02&#10;  L 170.48 199.99&#10;  A 1.43 1.26 -34.5 0 1 170.15 199.95&#10;  Q 166.71 199.11 166.11 199.07&#10;  C 162.12 198.80 156.81 196.88 154.37 195.47&#10;  Q 149.38 192.59 148.10 191.61&#10;  A 0.90 0.88 48.4 0 0 147.13 191.54&#10;  Q 131.40 200.25 117.12 202.54&#10;  Q 112.30 203.31 111.24 203.54&#10;  Q 108.04 204.21 106.23 204.03&#10;  C 104.08 203.82 101.72 204.45 99.51 204.44&#10;  Q 83.47 204.31 80.29 203.65&#10;  Q 78.39 203.26 75.52 202.86&#10;  Q 69.37 202.02 62.29 199.72&#10;  Q 22.50 186.75 8.60 148.73&#10;  Q 6.00 141.63 4.72 133.09&#10;  C 2.91 121.04 3.54 109.46 5.55 97.55&#10;  C 8.19 81.84 13.26 66.67 21.67 53.98&#10;  C 38.79 28.13 65.22 15.74 96.40 15.93&#10;  Q 105.09 15.99 113.37 17.42&#10;  Q 121.08 18.75 127.44 21.06&#10;  A 0.51 0.51 0.0 0 1 127.61 21.91&#10;  Z&#10;  M 49.0625 77.2199&#10;  A 7.17 6.13 90.3 0 0 55.2299 70.0821&#10;  A 7.17 6.13 90.3 0 0 49.1375 62.8801&#10;  A 7.17 6.13 90.3 0 0 42.9701 70.0179&#10;  A 7.17 6.13 90.3 0 0 49.0625 77.2199&#10;  Z&#10;  M 105.0727 77.1968&#10;  A 7.17 6.13 88.3 0 0 110.9873 69.8481&#10;  A 7.17 6.13 88.3 0 0 104.6473 62.8632&#10;  A 7.17 6.13 88.3 0 0 98.7327 70.2119&#10;  A 7.17 6.13 88.3 0 0 105.0727 77.1968&#10;  Z&#10;  M 69.4490 86.7094&#10;  A 0.74 0.43 92.4 0 0 69.9096 85.9880&#10;  A 0.74 0.43 92.4 0 0 69.5110 85.2306&#10;  A 0.74 0.43 92.4 0 0 69.0504 85.9520&#10;  A 0.74 0.43 92.4 0 0 69.4490 86.7094&#10;  Z&#10;  M 75.4716 86.6094&#10;  A 0.65 0.38 92.5 0 0 75.8796 85.9766&#10;  A 0.65 0.38 92.5 0 0 75.5284 85.3106&#10;  A 0.65 0.38 92.5 0 0 75.1204 85.9434&#10;  A 0.65 0.38 92.5 0 0 75.4716 86.6094&#10;  Z&#10;  M 19.09 89.17&#10;  L 34.51 88.07&#10;  A 0.10 0.10 0.0 0 0 34.60 87.96&#10;  L 34.60 87.88&#10;  A 7.66 1.48 -4.1 0 0 26.85 86.95&#10;  L 26.51 86.97&#10;  A 7.66 1.48 -4.1 0 0 18.98 89.00&#10;  L 18.98 89.08&#10;  A 0.10 0.10 0.0 0 0 19.09 89.17&#10;  Z&#10;  M 127.04 87.69&#10;  A 0.33 0.33 0.0 0 0 127.35 88.04&#10;  L 141.97 89.28&#10;  A 0.28 0.27 -16.3 0 0 142.21 88.84&#10;  L 141.77 88.24&#10;  A 1.60 1.58 -13.2 0 0 140.76 87.62&#10;  Q 133.61 86.47 127.27 87.17&#10;  A 0.24 0.22 -89.7 0 0 127.07 87.38&#10;  L 127.04 87.69&#10;  Z&#10;  M 34.56 93.31&#10;  L 34.49 93.01&#10;  A 0.24 0.23 82.0 0 0 34.26 92.82&#10;  Q 27.77 92.98 20.72 95.11&#10;  A 1.63 1.61 5.6 0 0 19.79 95.86&#10;  L 19.42 96.54&#10;  A 0.28 0.28 0.0 0 0 19.72 96.95&#10;  L 34.30 93.71&#10;  A 0.34 0.34 0.0 0 0 34.56 93.31&#10;  Z&#10;  M 93.92 94.08&#10;  C 87.44 97.53 83.63 98.04 76.53 98.09&#10;  C 69.08 98.14 63.67 97.73 58.31 93.17&#10;  A 0.31 0.31 0.0 0 0 57.81 93.51&#10;  C 59.00 97.13 64.00 98.35 67.58 99.01&#10;  Q 79.07 101.16 90.21 97.65&#10;  C 91.46 97.25 94.08 95.66 94.34 94.39&#10;  A 0.29 0.29 0.0 0 0 93.92 94.08&#10;  Z&#10;  M 126.95 93.80&#10;  L 142.14 96.84&#10;  A 0.05 0.05 0.0 0 0 142.21 96.80&#10;  L 142.21 96.80&#10;  A 5.01 1.71 11.3 0 0 137.63 94.14&#10;  L 132.16 93.05&#10;  A 5.01 1.71 11.3 0 0 126.91 93.74&#10;  L 126.91 93.74&#10;  A 0.05 0.05 0.0 0 0 126.95 93.80&#10;  Z&#10;  M 35.00 99.19&#10;  L 34.64 98.16&#10;  A 0.27 0.27 0.0 0 0 34.29 97.99&#10;  L 24.27 101.50&#10;  A 4.39 0.55 -19.3 0 0 20.31 103.47&#10;  L 20.49 103.98&#10;  A 4.39 0.55 -19.3 0 0 24.81 103.05&#10;  L 34.84 99.54&#10;  A 0.27 0.27 0.0 0 0 35.00 99.19&#10;  Z&#10;  M 126.79 98.95&#10;  A 0.33 0.33 0.0 0 0 126.99 99.37&#10;  L 140.73 104.43&#10;  A 0.28 0.27 -0.9 0 0 141.08 104.07&#10;  L 140.81 103.37&#10;  A 1.60 1.57 2.1 0 0 140.00 102.51&#10;  Q 133.43 99.52 127.15 98.51&#10;  A 0.24 0.22 -74.3 0 0 126.90 98.66&#10;  L 126.79 98.95&#10;  Z"/>
<ellipse fill="#ffffff" cx="0.00" cy="0.00" transform="translate(49.10,70.05) rotate(90.3)" rx="7.17" ry="6.13"/>
<ellipse fill="#ffffff" cx="0.00" cy="0.00" transform="translate(104.86,70.03) rotate(88.3)" rx="7.17" ry="6.13"/>
<ellipse fill="#ffffff" cx="0.00" cy="0.00" transform="translate(69.48,85.97) rotate(92.4)" rx="0.74" ry="0.43"/>
<ellipse fill="#ffffff" cx="0.00" cy="0.00" transform="translate(75.50,85.96) rotate(92.5)" rx="0.65" ry="0.38"/>
<path fill="#ffffff" d="&#10;  M 19.09 89.17&#10;  A 0.10 0.10 0.0 0 1 18.98 89.08&#10;  L 18.98 89.00&#10;  A 7.66 1.48 -4.1 0 1 26.51 86.97&#10;  L 26.85 86.95&#10;  A 7.66 1.48 -4.1 0 1 34.60 87.88&#10;  L 34.60 87.96&#10;  A 0.10 0.10 0.0 0 1 34.51 88.07&#10;  L 19.09 89.17&#10;  Z"/>
<path fill="#ffffff" d="&#10;  M 127.04 87.69&#10;  L 127.07 87.38&#10;  A 0.24 0.22 -89.7 0 1 127.27 87.17&#10;  Q 133.61 86.47 140.76 87.62&#10;  A 1.60 1.58 -13.2 0 1 141.77 88.24&#10;  L 142.21 88.84&#10;  A 0.28 0.27 -16.3 0 1 141.97 89.28&#10;  L 127.35 88.04&#10;  A 0.33 0.33 0.0 0 1 127.04 87.69&#10;  Z"/>
<path fill="#ffffff" d="&#10;  M 34.56 93.31&#10;  A 0.34 0.34 0.0 0 1 34.30 93.71&#10;  L 19.72 96.95&#10;  A 0.28 0.28 0.0 0 1 19.42 96.54&#10;  L 19.79 95.86&#10;  A 1.63 1.61 5.6 0 1 20.72 95.11&#10;  Q 27.77 92.98 34.26 92.82&#10;  A 0.24 0.23 82.0 0 1 34.49 93.01&#10;  L 34.56 93.31&#10;  Z"/>
<path fill="#ffffff" d="&#10;  M 94.34 94.39&#10;  C 94.08 95.66 91.46 97.25 90.21 97.65&#10;  Q 79.07 101.16 67.58 99.01&#10;  C 64.00 98.35 59.00 97.13 57.81 93.51&#10;  A 0.31 0.31 0.0 0 1 58.31 93.17&#10;  C 63.67 97.73 69.08 98.14 76.53 98.09&#10;  C 83.63 98.04 87.44 97.53 93.92 94.08&#10;  A 0.29 0.29 0.0 0 1 94.34 94.39&#10;  Z"/>
<path fill="#ffffff" d="&#10;  M 126.95 93.80&#10;  A 0.05 0.05 0.0 0 1 126.91 93.74&#10;  L 126.91 93.74&#10;  A 5.01 1.71 11.3 0 1 132.16 93.05&#10;  L 137.63 94.14&#10;  A 5.01 1.71 11.3 0 1 142.21 96.80&#10;  L 142.21 96.80&#10;  A 0.05 0.05 0.0 0 1 142.14 96.84&#10;  L 126.95 93.80&#10;  Z"/>
<path fill="#ffffff" d="&#10;  M 35.00 99.19&#10;  A 0.27 0.27 0.0 0 1 34.84 99.54&#10;  L 24.81 103.05&#10;  A 4.39 0.55 -19.3 0 1 20.49 103.98&#10;  L 20.31 103.47&#10;  A 4.39 0.55 -19.3 0 1 24.27 101.50&#10;  L 34.29 97.99&#10;  A 0.27 0.27 0.0 0 1 34.64 98.16&#10;  L 35.00 99.19&#10;  Z"/>
<path fill="#ffffff" d="&#10;  M 127.15 98.51&#10;  Q 133.43 99.52 140.00 102.51&#10;  A 1.60 1.57 2.1 0 1 140.81 103.37&#10;  L 141.08 104.07&#10;  A 0.28 0.27 -0.9 0 1 140.73 104.43&#10;  L 126.99 99.37&#10;  A 0.33 0.33 0.0 0 1 126.79 98.95&#10;  L 126.90 98.66&#10;  A 0.24 0.22 -74.3 0 1 127.15 98.51&#10;  Z"/>
</svg>